HIERARCHY
ROOT Hips
{
	OFFSET 0.000000 0.000000 0.000000
	CHANNELS 6 Xposition Yposition Zposition Zrotation Yrotation Xrotation 
	JOINT LeftUpLeg_virtual
	{
		OFFSET 0.000000 0.000000 0.000000
		CHANNELS 3 Zrotation Yrotation Xrotation
		JOINT LeftUpLeg
		{
			OFFSET 10.205400 -3.823500 0.155100
			CHANNELS 3 Zrotation Yrotation Xrotation
			JOINT LeftLeg
			{
				OFFSET 0.708757 -12.982077 0.567790
				CHANNELS 3 Zrotation Yrotation Xrotation
				JOINT LeftFoot
				{
					OFFSET -0.708756 -10.717838 -2.184338
					CHANNELS 3 Zrotation Yrotation Xrotation
					JOINT LeftToeBase
					{
						OFFSET 0.108149 -7.191104 7.560241
						CHANNELS 3 Zrotation Yrotation Xrotation
						End Site
						{
							OFFSET 0.000000 0.000000 0.000000
						}
					}
				}
			}
		}
	}
	JOINT RightUpLeg_virtual
	{
		OFFSET 0.000000 0.000000 0.000000
		CHANNELS 3 Zrotation Yrotation Xrotation
		JOINT RightUpLeg
		{
			OFFSET -10.205400 -3.823500 0.005500
			CHANNELS 3 Zrotation Yrotation Xrotation
			JOINT RightLeg
			{
				OFFSET -0.708756 -12.982134 0.610632
				CHANNELS 3 Zrotation Yrotation Xrotation
				JOINT RightFoot
				{
					OFFSET 0.708754 -10.717769 -1.945823
					CHANNELS 3 Zrotation Yrotation Xrotation
					JOINT RightToeBase
					{
						OFFSET -0.108140 -7.191069 7.372968
						CHANNELS 3 Zrotation Yrotation Xrotation
						End Site
						{
							OFFSET 0.000000 0.000000 0.000000
						}
					}
				}
			}
		}
	}
	JOINT Spine_virtual
	{
		OFFSET 0.000000 0.000000 0.000000
		CHANNELS 3 Zrotation Yrotation Xrotation
		JOINT Spine
		{
			OFFSET 0.000000 6.876099 0.125700
			CHANNELS 3 Zrotation Yrotation Xrotation
			JOINT Spine1
			{
				OFFSET 0.000000 8.022060 0.146608
				CHANNELS 3 Zrotation Yrotation Xrotation
				JOINT Spine2
				{
					OFFSET 0.000000 9.168068 0.167552
					CHANNELS 3 Zrotation Yrotation Xrotation
					JOINT Neck_virtual
					{
						OFFSET 0.000000 0.000000 0.000000
						CHANNELS 3 Zrotation Yrotation Xrotation
						JOINT Neck
						{
							OFFSET 0.000000 10.314075 0.188496
							CHANNELS 3 Zrotation Yrotation Xrotation
							JOINT Head
							{
								OFFSET 0.000000 7.643700 -2.377400
								CHANNELS 3 Zrotation Yrotation Xrotation
								End Site
								{
									OFFSET 0.000000 0.000000 0.000000
								}
							}
						}
					}
					JOINT LeftShoulder_virtual
					{
						OFFSET 0.000000 0.000000 0.000000
						CHANNELS 3 Zrotation Yrotation Xrotation
						JOINT LeftShoulder
						{
							OFFSET 4.392200 8.824978 0.174984
							CHANNELS 3 Zrotation Yrotation Xrotation
							JOINT LeftArm
							{
								OFFSET 8.771219 -2.981674 -0.026999
								CHANNELS 3 Zrotation Yrotation Xrotation
								JOINT LeftForeArm
								{
									OFFSET 8.512804 0.000000 -0.000000
									CHANNELS 3 Zrotation Yrotation Xrotation
									JOINT LeftHand
									{
										OFFSET 18.484802 0.000000 -0.000000
										CHANNELS 3 Zrotation Yrotation Xrotation
										End Site
										{
											OFFSET 0.000000 0.000000 0.000000
										}
									}
								}
							}
						}
					}
					JOINT RightShoulder_virtual
					{
						OFFSET 0.000000 0.000000 0.000000
						CHANNELS 3 Zrotation Yrotation Xrotation
						JOINT RightShoulder
						{
							OFFSET -4.392200 8.824993 0.141379
							CHANNELS 3 Zrotation Yrotation Xrotation
							JOINT RightArm
							{
								OFFSET -8.771282 -2.981682 -0.094208
								CHANNELS 3 Zrotation Yrotation Xrotation
								JOINT RightForeArm
								{
									OFFSET -8.494598 0.000000 0.000000
									CHANNELS 3 Zrotation Yrotation Xrotation
									JOINT RightHand
									{
										OFFSET -18.483803 0.000000 0.000001
										CHANNELS 3 Zrotation Yrotation Xrotation
										End Site
										{
											OFFSET 0.000000 0.000000 0.000000
										}
									}
								}
							}
						}
					}
				}
			}
		}
	}
}
MOTION
Frames: 10
Frame Time: 0.033333
-2.355810 36.158333 19.643366 179.736592 6.941333 -179.332791 -1.080587 -5.383294 13.253216 -8.049459 -3.406089 -14.133348 15.145885 2.682782 19.041376 -3.133703 -1.134199 3.557353 0.000000 0.000000 0.000000 4.291915 -3.825732 11.415720 -2.342963 7.919018 -14.749008 -5.780869 0.980212 21.247928 10.650746 2.276605 3.461890 0.000000 0.000000 0.000000 2.073486 -1.152560 -2.249338 -1.194260 1.583689 -6.253356 0.812882 -2.168548 8.210195 0.031015 0.061610 0.138583 0.371113 0.073889 11.070379 7.758539 -4.971714 14.330229 0.000000 0.000000 0.000000 1.606507 0.799830 8.227103 -16.851339 -12.011128 4.111630 -47.435479 20.330468 5.235463 -0.708877 -31.095082 2.478713 0.000000 0.000000 0.000000 -1.781195 1.724943 7.780881 23.445463 0.262651 3.578764 47.537966 -18.897994 9.366950 -3.082325 26.456840 -4.830466 0.000000 0.000000 0.000000 
-2.341098 36.162735 19.652040 179.602611 7.150472 -178.989533 -1.050357 -5.054848 13.667647 -7.982859 -3.387937 -13.819421 15.194301 2.371865 19.267639 -3.419999 -1.354478 3.974659 0.000000 0.000000 0.000000 4.477267 -4.191717 11.788714 -2.073402 7.745330 -14.560587 -5.734158 0.562300 21.527660 10.612617 2.263999 3.885616 0.000000 0.000000 0.000000 1.985600 -1.060674 -2.410972 -1.257724 1.690429 -6.492983 0.775716 -2.110364 8.198100 0.019954 0.101753 0.175117 0.444419 -0.139904 11.050226 7.824526 -4.832039 14.296908 0.000000 0.000000 0.000000 1.634840 0.727097 8.156293 -16.953551 -11.746510 4.039246 -47.341728 20.796618 5.134020 -0.705180 -30.960083 2.407695 0.000000 0.000000 0.000000 -1.750200 1.814050 7.734055 23.497789 0.202275 3.629450 47.559287 -18.990100 9.518938 -3.171426 26.563890 -4.879237 0.000000 0.000000 0.000000 
-2.339222 36.160126 19.673559 179.591505 7.125098 -178.996568 -1.060733 -4.990374 13.729371 -7.929510 -3.408701 -13.926691 15.171997 2.334151 19.227078 -3.454444 -1.338063 3.936113 0.000000 0.000000 0.000000 4.452736 -4.136864 11.892038 -2.055741 7.763518 -14.782993 -5.733070 0.529313 21.647682 10.548754 2.240386 3.988435 0.000000 0.000000 0.000000 1.938993 -1.065388 -2.338854 -1.260802 1.802555 -6.556664 0.763112 -2.089764 8.207611 0.059569 0.103511 0.115624 0.362157 -0.009823 11.141438 7.702655 -4.845206 14.418915 0.000000 0.000000 0.000000 1.558421 0.719689 8.307142 -17.140455 -11.557672 4.032155 -47.200548 21.064208 4.865536 -0.743211 -30.832034 2.413877 0.000000 0.000000 0.000000 -1.816321 1.729523 7.820664 23.671851 0.128359 3.587720 47.486918 -19.026590 9.497294 -3.171758 26.775757 -4.780502 0.000000 0.000000 0.000000 
-2.353650 36.157116 19.713278 179.606368 7.068080 -178.983591 -1.040846 -4.966808 13.748168 -7.908134 -3.399741 -14.042601 15.177415 2.262574 19.211849 -3.484856 -1.337081 3.874401 0.000000 0.000000 0.000000 4.452018 -4.106687 11.922705 -2.027324 7.769754 -14.996090 -5.731549 0.525876 21.827592 10.425677 2.189704 4.060371 0.000000 0.000000 0.000000 1.947069 -1.020465 -2.405648 -1.247564 1.890747 -6.607645 0.714650 -2.109295 8.385660 0.039435 0.071274 0.125121 0.328401 -0.136471 11.134626 7.645301 -4.670323 14.443915 0.000000 0.000000 0.000000 1.519480 0.759053 8.260412 -17.373057 -11.407153 4.025841 -46.928543 20.847998 4.654534 -0.800644 -30.713858 2.359050 0.000000 0.000000 0.000000 -1.833413 1.761737 7.824681 23.884331 0.153984 3.511584 47.305989 -18.904413 9.358957 -3.136617 27.074569 -4.674397 0.000000 0.000000 0.000000 
-2.387244 36.155190 19.765339 179.586806 6.995212 -179.008371 -1.027835 -4.964498 13.704161 -7.917316 -3.406980 -14.115726 15.185397 2.291090 19.219838 -3.510462 -1.370582 3.856049 0.000000 0.000000 0.000000 4.412387 -4.101346 11.883575 -2.016994 7.799694 -15.141146 -5.721528 0.541646 22.055951 10.256026 2.125217 4.118178 0.000000 0.000000 0.000000 1.907712 -0.997024 -2.360855 -1.266013 1.952557 -6.621579 0.704326 -2.142137 8.352181 -0.016949 0.090373 0.155369 0.314146 -0.095105 11.271649 7.401294 -4.669149 14.734163 0.000000 0.000000 0.000000 1.488992 0.776841 8.412211 -17.679286 -11.380789 3.971691 -46.487982 20.040193 4.537137 -0.999519 -30.907965 2.363764 0.000000 0.000000 0.000000 -1.824790 1.659030 7.923887 24.112289 0.105306 3.402058 46.951106 -18.555457 9.208358 -3.162896 27.470534 -4.678522 0.000000 0.000000 0.000000 
-2.437005 36.159000 19.819944 179.593950 6.879113 -178.998440 -0.980245 -4.997631 13.626134 -7.956981 -3.394454 -14.190148 15.194717 2.358236 19.217919 -3.497324 -1.438048 3.897383 0.000000 0.000000 0.000000 4.413728 -4.127371 11.788517 -2.033512 7.847923 -15.243763 -5.705638 0.591186 22.242607 10.045578 2.060727 4.164862 0.000000 0.000000 0.000000 1.930209 -0.985783 -2.534165 -1.311772 2.027401 -6.588028 0.660710 -2.132037 8.626720 0.057740 0.090700 0.101417 0.223672 -0.123241 11.383595 7.261636 -4.356537 14.845382 0.000000 0.000000 0.000000 1.459683 0.677507 8.443002 -18.021948 -11.632667 4.098358 -45.968741 18.472494 4.951064 -1.059086 -31.379463 2.207937 0.000000 0.000000 0.000000 -1.934637 1.678572 8.018364 24.331932 0.213743 3.260791 46.445071 -17.993824 9.087387 -2.971731 27.766160 -4.423751 0.000000 0.000000 0.000000 
-2.497974 36.166176 19.889259 179.601832 6.717667 -179.014463 -0.923183 -5.045021 13.567776 -8.024084 -3.397023 -14.298224 15.196724 2.395595 19.187987 -3.438046 -1.545634 3.967529 0.000000 0.000000 0.000000 4.434961 -4.167295 11.697110 -2.096066 7.929480 -15.334553 -5.682635 0.659206 22.388230 9.776894 1.992429 4.210011 0.000000 0.000000 0.000000 1.996759 -1.129600 -2.462719 -1.361777 2.173581 -6.588068 0.647666 -2.060475 8.640772 0.053305 -0.003359 0.062546 0.204221 -0.119207 11.510063 6.999171 -4.219847 15.176858 0.000000 0.000000 0.000000 1.386181 0.687557 8.599326 -18.316320 -11.743354 4.133162 -45.388977 16.493414 5.453988 -1.284357 -32.383826 2.228838 0.000000 0.000000 0.000000 -1.889191 1.614896 8.183203 24.539481 0.331005 3.161292 45.694898 -17.177379 8.924042 -2.994823 28.146754 -4.386090 0.000000 0.000000 0.000000 
-2.569005 36.180897 19.978638 179.640600 6.462912 -179.021102 -0.829813 -5.122032 13.528987 -8.123412 -3.420602 -14.475297 15.194447 2.373824 19.116844 -3.329910 -1.691678 4.063911 0.000000 0.000000 0.000000 4.501619 -4.227878 11.630864 -2.194952 8.029756 -15.449166 -5.648311 0.745564 22.496024 9.436372 1.915584 4.250085 0.000000 0.000000 0.000000 2.105651 -1.080978 -2.452545 -1.407034 2.235061 -6.566761 0.603536 -2.111522 8.830502 0.012919 0.062756 0.158810 0.294479 -0.289507 11.506114 6.862021 -4.097770 15.362689 0.000000 0.000000 0.000000 1.454627 0.597827 8.490402 -18.573999 -12.097302 4.137581 -44.928957 14.391671 6.120563 -1.626301 -33.900128 2.234031 0.000000 0.000000 0.000000 -1.849600 1.457708 8.105064 24.737767 0.533387 2.971042 44.733252 -16.225541 8.829238 -2.645042 28.406101 -4.036786 0.000000 0.000000 0.000000 
-2.648807 36.201534 20.090296 179.652362 6.160890 -179.051073 -0.766430 -5.236672 13.521024 -8.247103 -3.497455 -14.715818 15.140576 2.260419 19.039279 -3.122801 -1.833595 4.176405 0.000000 0.000000 0.000000 4.586459 -4.311748 11.580897 -2.330651 8.136990 -15.585624 -5.596554 0.845921 22.604516 9.040687 1.835368 4.252108 0.000000 0.000000 0.000000 2.238874 -1.058067 -2.373037 -1.398646 2.281017 -6.528637 0.632514 -2.165414 8.984339 0.094994 0.104093 0.089726 0.229853 -0.228980 11.733048 6.583066 -3.856548 15.549645 0.000000 0.000000 0.000000 1.412275 0.542976 8.754559 -18.733126 -12.316326 4.106392 -44.540289 12.254745 6.648893 -2.044615 -36.229386 2.330336 0.000000 0.000000 0.000000 -1.852346 1.520351 8.275413 24.919638 0.806990 2.999326 43.634424 -15.161973 8.846325 -2.543522 28.795900 -3.988443 0.000000 0.000000 0.000000 
-2.739858 36.229572 20.237906 179.650668 5.866870 -179.087478 -0.727512 -5.368463 13.506073 -8.397192 -3.598706 -15.013984 15.039937 2.073301 18.948768 -2.821629 -1.958555 4.284252 0.000000 0.000000 0.000000 4.691052 -4.372848 11.523798 -2.501792 8.215415 -15.774032 -5.539634 0.961384 22.730917 8.620843 1.763878 4.187642 0.000000 0.000000 0.000000 2.401982 -1.170305 -2.305794 -1.328547 2.314897 -6.438853 0.648239 -2.257378 9.256121 0.027540 0.043640 0.107347 0.255578 -0.185635 11.799551 6.409946 -3.759770 15.596588 0.000000 0.000000 0.000000 1.417645 0.614626 8.736036 -18.746487 -12.410097 4.162887 -44.240921 10.399001 7.118084 -2.435155 -39.011677 2.351063 0.000000 0.000000 0.000000 -1.820836 1.599184 8.398352 25.061446 1.439508 2.844445 42.500743 -13.999371 8.783844 -2.117484 28.962143 -3.625340 0.000000 0.000000 0.000000 
